# xmcd
#
# Track frame offsets: 
#        150
#        48900
#        93000
#        124500
#        153300
#        178135
#        202585
#        235135
#
# Disc length: 3381 seconds
#
# Revision: 0
# Processed by: cddbd v1.5.2PL0 Copyright (c) Steve Scherf et al.
# Submitted via: ExactAudioCopy v0.99pb4
#
DISCID=540d3308
DTITLE=Javi Canovas - Eigenspaces
DYEAR=2008
DGENRE=Electronic
TTITLE0=Living In The Emptiness
TTITLE1=Where was the time?
TTITLE2=Lost sign
TTITLE3=Blue T
TTITLE4=Vector
TTITLE5=Forgotten Future
TTITLE6=Parallel World
TTITLE7=Interposition
EXTD=
EXTT0=
EXTT1=
EXTT2=
EXTT3=
EXTT4=
EXTT5=
EXTT6=
EXTT7=
PLAYORDER=
